<?xml version="1.0" encoding="UTF-8"?>
<svg id="Layer_2" data-name="Layer 2" xmlns="http://www.w3.org/2000/svg" viewBox="0 0 602.44 602.47">
  <defs>
    <style>
      .cls-1 {
        fill: #fff;
      }
    </style>
  </defs>
  <g id="Layer_1-2" data-name="Layer 1">
    <g>
      <path class="cls-1" d="M400.96,486.35c-26.73-26.22-100.19-33.31-114.94-.63-14.74,32.69,18.71,34.33,18.71,34.33,0,0-13.02-4.32-13.72-15.86,.2-26.34,79.26-39.35,80.06,16.86,.8,56.22-97.57,83.03-191.37,39.34-93.8-43.69-176.62-228.33-8.56-374.87,139.3-121.47,294.21-105.88,343.42-96.99C460,33.84,384.57,0,301.23,0,134.87,0,0,134.87,0,301.23s134.87,301.23,301.23,301.23c10.1,0,20.08-.5,29.93-1.47,111.32-11.75,94.63-90.3,69.8-114.65Z"/>
      <path class="cls-1" d="M560.87,148.62c-7.9-15.24-64.97-72.59-223.65-24.2-158.68,48.39-255.35,186.48-241.83,291.78,13.52,105.31,91.56,152.16,160.01,159.27,68.44,7.11,109.48-25.6,105.22-60.91-1.57-13.02-13.33-22.34-26.16-25.54-21.98-5.48-47.6,7.47-32.9,24.31,0,0-6.79-11.95,6.76-15.77,13.55-3.82,34.39,12.4,22.59,35.17-11.8,22.77-67.13,35.38-118.53,.46-51.4-34.92-54.14-126.74,16.77-195.48,70.54-68.38,253.85-130.55,373.28-39.76-.56-52.34-14.46-101.48-38.48-144.17-1.09-1.59-2.14-3.31-3.1-5.17Z"/>
      <path class="cls-1" d="M567.45,307.67c-33.16-17.89-137.67-40.72-245.59,1.3-107.92,42.02-148.07,135.84-127.7,186.58,20.37,50.74,94.29,60.96,120.91,43.71,26.61-17.25,11.07-35.97-3.3-37.01,0,0,5.79,2.81,6.87,8.02,1.67,8.07-.54,14.46-10.79,19.36-18.61,8.9-65.38,2.67-63.24-53.75,2.14-56.41,93-95.23,164.51-87.34,67.43,7.44,136.77,37.24,124.47,104.42,31.71-38.39,54.09-84.76,63.67-135.66,2.93-17.55-2.67-34.99-29.8-49.62Z"/>
    </g>
  </g>
</svg>