<?xml version="1.0" encoding="UTF-8"?>
<svg id="Layer_2" data-name="Layer 2" xmlns="http://www.w3.org/2000/svg" viewBox="0 0 1743.33 532.13">
  <defs>
    <style>
      .cls-1 {
        letter-spacing: -.05em;
      }

      .cls-2, .cls-3 {
        fill: #fff;
      }

      .cls-4 {
        letter-spacing: -.02em;
      }

      .cls-5 {
        letter-spacing: -.04em;
      }

      .cls-6 {
        letter-spacing: 0em;
      }

      .cls-3 {
        font-family: FuturaBT-Bold, 'Futura Md BT';
        font-size: 56.89px;
      }

      .cls-7 {
        letter-spacing: -.04em;
      }

      .cls-8 {
        letter-spacing: -.02em;
      }

      .cls-9 {
        letter-spacing: -.04em;
      }
    </style>
  </defs>
  <g id="Layer_1-2" data-name="Layer 1">
    <g>
      <path class="cls-2" d="M354.15,429.57c-23.61-23.15-88.5-29.42-101.52-.55-13.02,28.87,16.52,30.32,16.52,30.32,0,0-11.5-3.82-12.12-14.01,.18-23.26,70-34.76,70.71,14.89,.71,49.65-86.18,73.34-169.03,34.75-82.85-38.59-156-201.67-7.56-331.11,123.03-107.29,259.86-93.52,303.33-85.66C406.3,29.89,339.68,0,266.07,0,119.12,0,0,119.12,0,266.07s119.12,266.07,266.07,266.07c8.92,0,17.74-.44,26.43-1.3,98.32-10.38,83.58-79.76,61.65-101.26Z"/>
      <path class="cls-2" d="M495.39,131.27c-6.98-13.46-57.38-64.11-197.54-21.37-140.16,42.74-225.54,164.71-213.59,257.72,11.94,93.01,80.87,134.4,141.33,140.68,60.45,6.28,96.7-22.61,92.94-53.8-1.39-11.5-11.77-19.73-23.1-22.56-19.41-4.84-42.04,6.6-29.06,21.47,0,0-5.99-10.56,5.98-13.93,11.97-3.37,30.37,10.95,19.96,31.06-10.42,20.11-59.29,31.25-104.69,.41-45.4-30.84-47.82-111.94,14.82-172.66,62.31-60.39,224.21-115.31,329.7-35.12-.49-46.23-12.78-89.63-33.98-127.34-.96-1.4-1.89-2.92-2.74-4.57Z"/>
      <path class="cls-2" d="M501.21,271.75c-29.29-15.8-121.6-35.97-216.92,1.15-95.32,37.12-130.78,119.98-112.79,164.8s83.29,53.84,106.79,38.6c23.5-15.24,9.78-31.77-2.92-32.69,0,0,5.11,2.48,6.07,7.09,1.48,7.13-.48,12.77-9.53,17.1-16.44,7.86-57.75,2.36-55.86-47.47,1.89-49.83,82.14-84.11,145.31-77.15,59.56,6.57,120.8,32.89,109.94,92.23,28.01-33.91,47.77-74.87,56.24-119.82,2.59-15.5-2.36-30.9-26.32-43.83Z"/>
    </g>
    <text class="cls-3" transform="translate(572.41 266.07)"><tspan x="0" y="0">DINAS </tspan><tspan class="cls-5" x="204.44" y="0">K</tspan><tspan x="243.66" y="0">OMUNI</tspan><tspan class="cls-8" x="458.24" y="0">K</tspan><tspan x="498.49" y="0">ASI </tspan><tspan class="cls-8" x="610.87" y="0">D</tspan><tspan x="653.45" y="0">AN INFORM</tspan><tspan class="cls-7" x="998.46" y="0">A</tspan><tspan x="1037.24" y="0">TI</tspan><tspan class="cls-8" x="1089.14" y="0">K</tspan><tspan x="1129.39" y="0">A</tspan><tspan class="cls-8" x="0" y="68.27">K</tspan><tspan x="40.25" y="68.27">ABU</tspan><tspan class="cls-1" x="164.29" y="68.27">P</tspan><tspan class="cls-9" x="197.52" y="68.27">A</tspan><tspan x="236.3" y="68.27">TEN BANY</tspan><tspan class="cls-4" x="528.44" y="68.27">U</tspan><tspan class="cls-6" x="571.81" y="68.27">ASIN </tspan></text>
  </g>
</svg>